<svg width="48" height="48" viewBox="0 0 48 48" fill="none" xmlns="http://www.w3.org/2000/svg">
<g clip-path="url(#clip0_254_61)">
<path d="M37.3486 47.9742L10.696 47.9995C4.83248 48.0048 0.0310111 43.2127 0.0243479 37.3491L-0.00097212 10.6965C-0.00630264 4.83296 4.78583 0.0314993 10.6494 0.0248362L37.302 -0.000483839C43.1656 -0.00581436 47.967 4.78632 47.9737 10.6499L47.999 37.3025C48.0057 43.1674 43.2122 47.9689 37.3486 47.9742Z" fill="url(#paint0_radial_254_61)"/>
<path d="M37.3486 47.9742L10.696 47.9995C4.83248 48.0048 0.0310111 43.2127 0.0243479 37.3491L-0.00097212 10.6965C-0.00630264 4.83296 4.78583 0.0314993 10.6494 0.0248362L37.302 -0.000483839C43.1656 -0.00581436 47.967 4.78632 47.9737 10.6499L47.999 37.3025C48.0057 43.1674 43.2122 47.9689 37.3486 47.9742Z" fill="url(#paint1_radial_254_61)"/>
<path d="M23.9993 33.3287C18.8567 33.3287 14.6709 29.1442 14.6709 24.0003C14.6709 18.8563 18.8567 14.6719 23.9993 14.6719C29.1419 14.6719 33.3277 18.8563 33.3277 24.0003C33.3277 29.1442 29.1419 33.3287 23.9993 33.3287ZM23.9993 17.3371C20.3252 17.3371 17.3362 20.3262 17.3362 24.0003C17.3362 27.6743 20.3252 30.6634 23.9993 30.6634C27.6734 30.6634 30.6625 27.6743 30.6625 24.0003C30.6625 20.3262 27.6734 17.3371 23.9993 17.3371Z" fill="white"/>
<path d="M33.9941 16.0045C35.098 16.0045 35.993 15.1095 35.993 14.0055C35.993 12.9015 35.098 12.0066 33.9941 12.0066C32.8901 12.0066 31.9951 12.9015 31.9951 14.0055C31.9951 15.1095 32.8901 16.0045 33.9941 16.0045Z" fill="white"/>
<path d="M31.9948 41.3244H16.0032C10.8606 41.3244 6.6748 37.1399 6.6748 31.996V16.0044C6.6748 10.8605 10.8606 6.67603 16.0032 6.67603H31.9948C37.1374 6.67603 41.3232 10.8605 41.3232 16.0044V31.996C41.3232 37.1399 37.1374 41.3244 31.9948 41.3244ZM16.0032 9.34128C12.3292 9.34128 9.34006 12.3304 9.34006 16.0044V31.996C9.34006 35.67 12.3292 38.6591 16.0032 38.6591H31.9948C35.6688 38.6591 38.6579 35.67 38.6579 31.996V16.0044C38.6579 12.3304 35.6688 9.34128 31.9948 9.34128H16.0032Z" fill="white"/>
</g>
<defs>
<radialGradient id="paint0_radial_254_61" cx="0" cy="0" r="1" gradientUnits="userSpaceOnUse" gradientTransform="translate(17.8432 48.0343) scale(59.8336)">
<stop stop-color="#FFDD55"/>
<stop offset="0.328" stop-color="#FF543F"/>
<stop offset="0.3484" stop-color="#FC5245"/>
<stop offset="0.5039" stop-color="#E64771"/>
<stop offset="0.6433" stop-color="#D53E91"/>
<stop offset="0.7606" stop-color="#CC39A4"/>
<stop offset="0.8414" stop-color="#C837AB"/>
</radialGradient>
<radialGradient id="paint1_radial_254_61" cx="0" cy="0" r="1" gradientUnits="userSpaceOnUse" gradientTransform="translate(7.72282 -0.599674) scale(39.7302 26.4722)">
<stop stop-color="#4168C9"/>
<stop offset="0.9988" stop-color="#4168C9" stop-opacity="0"/>
</radialGradient>
<clipPath id="clip0_254_61">
<rect width="48" height="48" fill="white"/>
</clipPath>
</defs>
</svg>
