<svg width="35" height="35" viewBox="0 0 35 35" fill="none" xmlns="http://www.w3.org/2000/svg">
<g clip-path="url(#clip0_378_44)">
<path d="M17.2805 0C12.5911 0 12.0014 0.0216 10.159 0.10368C8.31649 0.19008 7.06153 0.47952 5.96209 0.9072C4.80831 1.3399 3.76351 2.02046 2.90137 2.90088C2.02095 3.76302 1.34039 4.80782 0.907688 5.9616C0.480008 7.05888 0.188408 8.316 0.104168 10.152C0.0220883 11.9988 0.000488281 12.5863 0.000488281 17.2822C0.000488281 21.9737 0.0220883 22.5612 0.104168 24.4037C0.190568 26.244 0.480008 27.499 0.907688 28.5984C1.35049 29.7346 1.94017 30.6979 2.90137 31.6591C3.86041 32.6203 4.82377 33.2122 5.95993 33.6528C7.06153 34.0805 8.31433 34.3721 10.1546 34.4563C11.9993 34.5384 12.5868 34.56 17.2805 34.56C21.9742 34.56 22.5595 34.5384 24.4042 34.4563C26.2423 34.3699 27.5016 34.0805 28.601 33.6528C29.7541 33.2198 30.7981 32.5393 31.6596 31.6591C32.6208 30.6979 33.2105 29.7346 33.6533 28.5984C34.0788 27.499 34.3704 26.244 34.4568 24.4037C34.5389 22.5612 34.5605 21.9737 34.5605 17.28C34.5605 12.5863 34.5389 11.9988 34.4568 10.1542C34.3704 8.316 34.0788 7.05888 33.6533 5.9616C33.2206 4.80782 32.54 3.76302 31.6596 2.90088C30.7975 2.02046 29.7527 1.3399 28.5989 0.9072C27.4973 0.47952 26.2402 0.18792 24.402 0.10368C22.5574 0.0216 21.972 0 17.2762 0H17.2805ZM15.7318 3.11472H17.2826C21.8964 3.11472 22.4429 3.12984 24.2638 3.21408C25.9486 3.28968 26.8644 3.57264 27.4735 3.80808C28.2792 4.12128 28.8559 4.49712 29.4607 5.10192C30.0655 5.70672 30.4392 6.28128 30.7524 7.08912C30.99 7.69608 31.2708 8.61192 31.3464 10.2967C31.4306 12.1176 31.4479 12.6641 31.4479 17.2757C31.4479 21.8873 31.4306 22.4359 31.3464 24.2568C31.2708 25.9416 30.9879 26.8553 30.7524 27.4644C30.4734 28.2137 30.0315 28.8917 29.4586 29.4494C28.8538 30.0542 28.2792 30.4279 27.4714 30.7411C26.8666 30.9787 25.9507 31.2595 24.2638 31.3373C22.4429 31.4194 21.8964 31.4388 17.2826 31.4388C12.6689 31.4388 12.1202 31.4194 10.2994 31.3373C8.61457 31.2595 7.70089 30.9787 7.09177 30.7411C6.34189 30.463 5.66314 30.0218 5.10457 29.4494C4.5306 28.8913 4.08792 28.2125 3.80857 27.4622C3.57313 26.8553 3.29017 25.9394 3.21457 24.2546C3.13249 22.4338 3.11521 21.8873 3.11521 17.2714C3.11521 12.6554 3.13249 12.1133 3.21457 10.2924C3.29233 8.6076 3.57313 7.69176 3.81073 7.08264C4.12393 6.27696 4.49977 5.70024 5.10457 5.09544C5.70937 4.49064 6.28393 4.11696 7.09177 3.80376C7.70089 3.56616 8.61457 3.28536 10.2994 3.2076C11.8934 3.13416 12.5112 3.11256 15.7318 3.1104V3.11472ZM26.5058 5.9832C26.2335 5.9832 25.9639 6.03684 25.7123 6.14104C25.4607 6.24525 25.2321 6.39799 25.0396 6.59054C24.847 6.7831 24.6943 7.01169 24.5901 7.26327C24.4859 7.51485 24.4322 7.78449 24.4322 8.0568C24.4322 8.32911 24.4859 8.59875 24.5901 8.85033C24.6943 9.10191 24.847 9.33051 25.0396 9.52306C25.2321 9.71561 25.4607 9.86835 25.7123 9.97256C25.9639 10.0768 26.2335 10.1304 26.5058 10.1304C27.0558 10.1304 27.5832 9.91193 27.9721 9.52306C28.361 9.13418 28.5794 8.60675 28.5794 8.0568C28.5794 7.50685 28.361 6.97942 27.9721 6.59054C27.5832 6.20167 27.0558 5.9832 26.5058 5.9832ZM17.2826 8.40672C16.1056 8.38836 14.9367 8.60433 13.8439 9.04206C12.7511 9.4798 11.7563 10.1306 10.9175 10.9564C10.0786 11.7823 9.41239 12.7668 8.95767 13.8526C8.50294 14.9385 8.26875 16.1039 8.26875 17.2811C8.26875 18.4583 8.50294 19.6237 8.95767 20.7095C9.41239 21.7953 10.0786 22.7798 10.9175 23.6057C11.7563 24.4316 12.7511 25.0824 13.8439 25.5201C14.9367 25.9578 16.1056 26.1738 17.2826 26.1554C19.6123 26.1191 21.8342 25.1681 23.4688 23.5078C25.1034 21.8475 26.0196 19.611 26.0196 17.2811C26.0196 14.9511 25.1034 12.7147 23.4688 11.0543C21.8342 9.39403 19.6123 8.44307 17.2826 8.40672ZM17.2826 11.5193C18.0392 11.5193 18.7883 11.6683 19.4872 11.9578C20.1861 12.2473 20.8212 12.6716 21.3561 13.2066C21.891 13.7415 22.3154 14.3765 22.6049 15.0755C22.8944 15.7744 23.0434 16.5235 23.0434 17.28C23.0434 18.0365 22.8944 18.7856 22.6049 19.4845C22.3154 20.1835 21.891 20.8185 21.3561 21.3534C20.8212 21.8884 20.1861 22.3127 19.4872 22.6022C18.7883 22.8917 18.0392 23.0407 17.2826 23.0407C15.7548 23.0407 14.2895 22.4338 13.2092 21.3534C12.1289 20.2731 11.5219 18.8078 11.5219 17.28C11.5219 15.7522 12.1289 14.2869 13.2092 13.2066C14.2895 12.1262 15.7548 11.5193 17.2826 11.5193Z" fill="#847D9C"/>
</g>
<defs>
<clipPath id="clip0_378_44">
<rect width="34.56" height="34.56" fill="white"/>
</clipPath>
</defs>
</svg>
