<svg width="36" height="36" viewBox="0 0 36 36" fill="none" xmlns="http://www.w3.org/2000/svg">
<g opacity="0.8" clip-path="url(#clip0_316_58)">
<path fill-rule="evenodd" clip-rule="evenodd" d="M30.4797 35.28C33.1312 35.28 35.2797 33.1315 35.2797 30.48V5.51997C35.2797 2.86845 33.1312 0.719971 30.4797 0.719971H5.51973C2.86917 0.719971 0.719727 2.86845 0.719727 5.51997V30.48C0.719727 33.1315 2.86917 35.28 5.51973 35.28H30.4797ZM11.2805 13.2H6.48047V29.52H11.2805V13.2ZM8.83919 11.28H8.86607C10.3541 11.28 11.2805 10.2115 11.2805 8.87902C11.2536 7.51678 10.3541 6.47998 8.89391 6.47998C7.43567 6.47998 6.48047 7.51678 6.48047 8.87902C6.48047 10.2125 7.40687 11.28 8.83919 11.28ZM24.7205 29.52H29.5205L29.5195 20.183C29.5195 15.36 26.9438 13.2 23.509 13.2C20.7365 13.2 19.6526 14.64 18.9605 15.7113V13.2H14.1605V29.52H18.9605V20.88C18.9605 20.7999 18.9593 20.7064 18.958 20.6047C18.9516 20.1107 18.9428 19.4239 19.0574 19.1453C19.4357 18.2064 20.2152 17.2349 21.6562 17.2349C23.5445 17.2349 24.7205 18.6749 24.7205 20.7849V29.52Z" fill="#A398BB"/>
</g>
<defs>
<clipPath id="clip0_316_58">
<rect width="34.56" height="34.56" fill="white" transform="translate(0.719727 0.719971)"/>
</clipPath>
</defs>
</svg>
