<svg width="48" height="48" viewBox="0 0 48 48" fill="none" xmlns="http://www.w3.org/2000/svg">
<g clip-path="url(#clip0_254_70)">
<path d="M40 0H8C3.58171 0 0 3.58171 0 8V40C0 44.4183 3.58171 48 8 48H40C44.4183 48 48 44.4183 48 40V8C48 3.58171 44.4183 0 40 0Z" fill="white"/>
<path d="M40 0H8C3.58171 0 0 3.58171 0 8V40C0 44.4183 3.58171 48 8 48H40C44.4183 48 48 44.4183 48 40V8C48 3.58171 44.4183 0 40 0ZM29.6891 37.7143L22.2149 27.0949L13.1429 37.7143H10.2857L20.9234 25.2606L10.384 10.2857H19.4549L25.8971 19.4389L33.7143 10.2857H36.5714L27.1874 21.272L38.7589 37.7143H29.6891Z" fill="black"/>
<path d="M14.7588 12.5715L30.8822 35.4287H34.3839L18.2605 12.5715H14.7588Z" fill="black"/>
</g>
<defs>
<clipPath id="clip0_254_70">
<rect width="48" height="48" fill="white"/>
</clipPath>
</defs>
</svg>
