<svg width="421" height="527" viewBox="0 0 421 527" fill="none" xmlns="http://www.w3.org/2000/svg">
<path d="M0 12.0298C0 5.39076 5.39073 0.0133602 12.0297 0.0298142L391.521 0.970333C398.136 0.98673 403.491 6.35449 403.491 12.9703V70.3964C403.491 73.9097 405.031 77.2465 407.704 79.5264L416.04 86.6366C418.713 88.9165 420.252 92.2533 420.252 95.7666V142.493C420.252 145.936 418.773 149.213 416.192 151.491L404.137 162.128C403.707 162.508 403.304 162.917 402.933 163.354L397.967 169.197C396.123 171.366 395.11 174.121 395.11 176.969V200.505C395.11 203.161 395.991 205.741 397.615 207.843L400.986 212.206C402.61 214.307 403.491 216.888 403.491 219.543V514.62C403.491 521.26 398.099 526.638 391.459 526.62L36.2019 525.667C32.6311 525.658 29.25 524.058 26.9776 521.304L14.8911 506.654C14.4953 506.174 14.1374 505.664 13.8206 505.129L1.67308 484.604C0.577843 482.753 0 480.642 0 478.492V12.0298Z" fill="#C4C4C4"/>
</svg>
