<svg width="96" height="97" viewBox="0 0 96 97" fill="none" xmlns="http://www.w3.org/2000/svg">
<path d="M51.3742 13.8281C50.5789 13.7334 49.997 13.435 49.6286 12.933C49.2602 12.431 49.1252 11.7676 49.2235 10.9428L49.8695 5.52261C49.9678 4.69781 50.2549 4.08473 50.731 3.68337C51.207 3.28201 51.8427 3.12872 52.6381 3.22351C53.4334 3.3183 54.0153 3.61669 54.3837 4.11869C54.7521 4.62069 54.8871 5.28409 54.7888 6.10889L54.1429 11.529C54.0446 12.3538 53.7574 12.9669 53.2813 13.3683C52.8053 13.7696 52.1696 13.9229 51.3742 13.8281ZM51.5498 12.3553C52.1095 12.422 52.4297 12.1166 52.5104 11.4391L53.181 5.81271C53.2617 5.13519 53.0222 4.76308 52.4626 4.69638C51.9029 4.62967 51.5826 4.93508 51.5019 5.6126L50.8314 11.2389C50.7506 11.9165 50.9901 12.2886 51.5498 12.3553Z" fill="black"/>
<path d="M60.9934 4.87241L63.2408 5.72296C63.9991 6.00998 64.4909 6.42871 64.7161 6.97915C64.9413 7.52959 64.9051 8.19786 64.6076 8.98398L64.2453 9.94118C63.9478 10.7273 63.5324 11.2521 62.9992 11.5155C62.466 11.7789 61.8202 11.7671 61.0619 11.4801L60.3405 11.2071L58.8442 15.1608L57.3182 14.5832L60.9934 4.87241ZM61.5869 10.0928C61.8366 10.1873 62.0478 10.188 62.2206 10.0948C62.4025 10.005 62.5565 9.7937 62.6825 9.46075L63.1183 8.30933C63.2443 7.97639 63.2689 7.71605 63.1919 7.52832C63.1242 7.34409 62.9654 7.20473 62.7157 7.11022L61.9944 6.8372L60.8655 9.81981L61.5869 10.0928Z" fill="black"/>
<path d="M70.9584 9.19428L74.6426 11.6898L73.8107 12.9179L71.4774 11.3374L69.9385 13.6093L71.7929 14.8654L70.961 16.0935L69.1066 14.8374L67.3181 17.4778L69.6515 19.0583L68.8196 20.2864L65.1354 17.7908L70.9584 9.19428Z" fill="black"/>
<path d="M79.1155 15.2433L80.5038 16.7475L77.0131 22.129L77.0332 22.1508L81.6003 17.9356L82.5862 19.0038L74.9562 26.0458L73.8194 24.8141L78.0614 18.2346L78.0413 18.2128L72.4714 23.3535L71.4855 22.2853L79.1155 15.2433Z" fill="black"/>
<path d="M89.0555 29.0332L89.7032 30.5307L80.1734 34.6525L79.5257 33.155L89.0555 29.0332Z" fill="black"/>
<path d="M91.5111 35.1035L91.9567 37.1014L86.2362 40.0032L86.2427 40.0322L92.3086 38.6794L92.625 40.0982L82.491 42.3582L82.1261 40.7223L89.0978 37.1615L89.0913 37.1325L81.6935 38.7824L81.3771 37.3636L91.5111 35.1035Z" fill="black"/>
<path d="M82.5091 52.9713C82.6396 52.191 82.9577 51.6377 83.4634 51.3112C83.979 50.9863 84.6512 50.8932 85.4802 51.0318L86.0654 51.1297L85.811 52.6512L85.1088 52.5338C84.4456 52.4228 84.0675 52.6454 83.9745 53.2013C83.9288 53.4744 83.9726 53.6922 84.1058 53.8549C84.2472 54.0289 84.4983 54.1461 84.8591 54.2064C85.2883 54.2782 85.6801 54.2435 86.0346 54.1022C86.3988 53.9626 86.8541 53.6678 87.4006 53.2178C88.0967 52.6524 88.7008 52.2772 89.213 52.0922C89.735 51.9087 90.2934 51.8668 90.8884 51.9663C91.6979 52.1016 92.2878 52.4108 92.6582 52.8939C93.0384 53.3785 93.1632 54.011 93.0327 54.7912C92.9039 55.5617 92.5825 56.1045 92.0686 56.4196C91.5629 56.7461 90.8955 56.84 90.0665 56.7014L89.6422 56.6305L89.8966 55.109L90.4233 55.197C90.7744 55.2558 91.0394 55.2299 91.2183 55.1194C91.4069 55.0106 91.5233 54.8246 91.5673 54.5612C91.657 54.0248 91.3751 53.7019 90.7217 53.5927C90.351 53.5307 89.9885 53.5703 89.634 53.7116C89.2779 53.8626 88.8266 54.1631 88.2802 54.6131C87.5824 55.1882 86.9734 55.5626 86.4531 55.7362C85.9328 55.9099 85.3508 55.9429 84.7071 55.8353C83.8683 55.695 83.2597 55.3777 82.8811 54.8833C82.501 54.3986 82.377 53.7613 82.5091 52.9713Z" fill="black"/>
<path d="M89.2344 63.3038L89.8812 61.7254L91.2537 62.2878L89.3416 66.9544L87.969 66.392L88.6158 64.8136L80.3806 61.4391L80.9993 59.9293L89.2344 63.3038Z" fill="black"/>
<path d="M87.0253 71.5306L84.4801 75.1807L83.2634 74.3323L84.8754 72.0206L82.6244 70.451L81.3434 72.2883L80.1267 71.4399L81.4077 69.6026L78.7918 67.7786L77.1799 70.0903L75.9632 69.2419L78.5084 65.5918L87.0253 71.5306Z" fill="black"/>
<path d="M79.989 80.3895L78.3548 81.8775L70.1143 75.3383L71.3208 74.2398L72.9282 75.5647L72.9082 75.5427L74.2792 74.2945L73.1305 72.5921L74.2492 71.5736L79.989 80.3895ZM73.9995 76.4549L77.992 79.7605L78.014 79.7405L75.0853 75.4662L73.9995 76.4549Z" fill="black"/>
<path d="M72.8869 86.2823L70.8325 87.379L66.417 81.3123L66.3908 81.3263L68.9744 88.3709L66.92 89.4676L62.0304 80.3079L63.3913 79.5815L67.0934 86.5166L67.1196 86.5027L64.4642 79.0087L65.6681 78.3661L70.417 84.7424L70.4432 84.7284L66.7411 77.7933L67.9972 77.1227L72.8869 86.2823Z" fill="black"/>
<path d="M46.7578 82.8719C47.5569 82.9266 48.1531 83.1954 48.5462 83.6782C48.9394 84.1611 49.1076 84.8169 49.0509 85.6456L48.6781 91.0913C48.6214 91.92 48.3654 92.5468 47.9101 92.9716C47.4548 93.3963 46.8276 93.5814 46.0285 93.5267C45.2294 93.472 44.6333 93.2032 44.2401 92.7203C43.847 92.2375 43.6788 91.5817 43.7355 90.753L44.1083 85.3072C44.165 84.4785 44.421 83.8518 44.8763 83.427C45.3315 83.0023 45.9587 82.8172 46.7578 82.8719ZM46.6565 84.3517C46.0942 84.3132 45.7897 84.6344 45.7432 85.3151L45.3562 90.968C45.3096 91.6487 45.5675 92.0083 46.1298 92.0468C46.6921 92.0853 46.9966 91.7642 47.0432 91.0835L47.4302 85.4306C47.4767 84.7498 47.2189 84.3902 46.6565 84.3517Z" fill="black"/>
<path d="M37.608 92.2959L35.3204 91.5605C34.5484 91.3123 34.036 90.9191 33.7832 90.3808C33.5304 89.8425 33.5326 89.1733 33.7898 88.3731L34.103 87.3987C34.3603 86.5985 34.7484 86.0533 35.2676 85.7632C35.7867 85.473 36.4323 85.452 37.2042 85.7002L37.9385 85.9362L39.2322 81.9117L40.7856 82.411L37.608 92.2959ZM36.7503 87.1123C36.4961 87.0306 36.2851 87.0407 36.1173 87.1425C35.9402 87.2414 35.7971 87.4603 35.6881 87.7992L35.3114 88.9712C35.2024 89.3101 35.1912 89.5714 35.2776 89.755C35.3546 89.9355 35.5201 90.0667 35.7743 90.1484L36.5086 90.3844L37.4846 87.3483L36.7503 87.1123Z" fill="black"/>
<path d="M27.4396 88.4776L23.6335 86.1721L24.402 84.9034L26.8125 86.3635L28.2342 84.0165L26.3185 82.856L27.087 81.5874L29.0027 82.7478L30.655 80.0201L28.2445 78.56L29.013 77.2913L32.819 79.5968L27.4396 88.4776Z" fill="black"/>
<path d="M18.9564 82.8209L17.4984 81.3842L20.7299 75.8433L20.7088 75.8225L16.3467 80.2494L15.3113 79.2292L22.5988 71.8333L23.7927 73.0097L19.8675 79.7829L19.8886 79.8037L25.2085 74.4047L26.2439 75.425L18.9564 82.8209Z" fill="black"/>
<path d="M8.35951 69.5363L7.64072 68.0715L16.9619 63.4974L17.6807 64.9622L8.35951 69.5363Z" fill="black"/>
<path d="M5.6281 63.6335L5.08018 61.6612L10.6435 58.4684L10.6356 58.4398L4.6474 60.1034L4.2583 58.7029L14.2624 55.9235L14.7111 57.5385L7.93217 61.4539L7.94011 61.4825L15.2431 59.4536L15.6322 60.8541L5.6281 63.6335Z" fill="black"/>
<path d="M13.7257 45.3217C13.6347 46.1075 13.3449 46.6763 12.8562 47.0278C12.3577 47.3783 11.691 47.5051 10.8561 47.4085L10.2667 47.3403L10.4441 45.8079L11.1513 45.8898C11.8193 45.9671 12.1857 45.7258 12.2505 45.1659C12.2823 44.8908 12.2276 44.6754 12.0864 44.5197C11.9365 44.3531 11.6798 44.2487 11.3163 44.2066C10.8841 44.1566 10.4945 44.211 10.1476 44.37C9.79092 44.5278 9.35102 44.8452 8.82793 45.3221C8.16123 45.9219 7.57677 46.3271 7.07456 46.5377C6.56254 46.7472 6.00692 46.8173 5.40772 46.7479C4.59241 46.6535 3.98762 46.3745 3.59334 45.9107C3.18924 45.4459 3.03268 44.8205 3.12365 44.0347C3.21348 43.2587 3.50707 42.7003 4.00441 42.3597C4.49307 42.0082 5.15488 41.8807 5.98983 41.9774L6.41713 42.0268L6.23974 43.5592L5.7093 43.4978C5.35567 43.4569 5.09231 43.4961 4.91922 43.6154C4.73631 43.7336 4.62951 43.9253 4.5988 44.1905C4.53626 44.7308 4.83406 45.039 5.4922 45.1152C5.86548 45.1584 6.22556 45.1005 6.57246 44.9416C6.9205 44.7728 7.35607 44.45 7.87915 43.973C8.54699 43.3634 9.13636 42.9588 9.64725 42.7591C10.1581 42.5594 10.7377 42.4971 11.3861 42.5722C12.2308 42.67 12.8547 42.9562 13.2577 43.4309C13.6618 43.8958 13.8178 44.526 13.7257 45.3217Z" fill="black"/>
<path d="M6.49164 35.3459L5.92581 36.9551L4.52651 36.4631L6.19938 31.7055L7.59869 32.1975L7.03286 33.8067L15.4287 36.7588L14.8875 38.298L6.49164 35.3459Z" fill="black"/>
<path d="M8.28775 27.0209L10.6445 23.2464L11.9027 24.0319L10.4101 26.4225L12.7377 27.8758L13.9239 25.9759L15.1821 26.7615L13.9959 28.6614L16.701 30.3504L18.1936 27.9598L19.4517 28.7454L17.095 32.5199L8.28775 27.0209Z" fill="black"/>
<path d="M14.8738 17.8237L16.4304 16.2547L24.9923 22.367L23.8432 23.5253L22.1705 22.2838L22.1916 22.3047L20.8858 23.621L22.1194 25.2628L21.0539 26.3368L14.8738 17.8237ZM21.0555 21.4492L16.9002 18.3506L16.8793 18.3716L20.0212 22.4916L21.0555 21.4492Z" fill="black"/>
<path d="M21.7008 11.5578L23.7005 10.3643L28.4006 16.2133L28.4261 16.1981L25.5091 9.28481L27.5088 8.09131L32.8301 17.007L31.5055 17.7976L27.4765 11.0472L27.451 11.0624L30.4611 18.421L29.2893 19.1204L24.2414 12.9781L24.2159 12.9933L28.2449 19.7437L27.0222 20.4735L21.7008 11.5578Z" fill="black"/>
<circle cx="39.7506" cy="9.69173" r="1.39058" fill="black"/>
<circle cx="56.4376" cy="87.5644" r="1.39058" fill="black"/>
</svg>
