<svg width="993" height="290" viewBox="0 0 993 290" fill="none" xmlns="http://www.w3.org/2000/svg">
<path d="M364.284 51.4263H401.899L465.859 167.124L529.817 51.4264H566.618V241.539H535.929V95.832L479.846 196.728H451.057L394.974 95.832V241.539H364.284V51.4263Z" fill="white"/>
<path d="M665.61 244.935C651.396 244.935 638.903 241.789 628.13 235.497C617.356 229.205 608.96 220.492 602.94 209.356C596.919 198.221 593.909 185.456 593.91 171.062C593.91 156.488 596.852 143.587 602.737 132.361C608.621 121.136 616.791 112.355 627.248 106.015C637.705 99.6802 649.722 96.5117 663.301 96.51C676.79 96.51 688.4 99.701 698.133 106.083C707.863 112.467 715.354 121.407 720.606 132.903C725.856 144.402 728.481 157.891 728.483 173.371V181.789H624.328C626.23 193.379 630.915 202.5 638.383 209.152C645.852 215.806 655.29 219.133 666.696 219.132C675.839 219.132 683.715 217.774 690.324 215.059C696.932 212.343 703.133 208.224 708.929 202.702L725.224 222.663C709.017 237.512 689.146 244.936 665.61 244.935ZM688.016 132.156C681.587 125.593 673.168 122.312 662.758 122.311C652.618 122.311 644.131 125.661 637.297 132.361C630.46 139.06 626.138 148.068 624.328 159.384H699.016C698.11 147.795 694.443 138.72 688.016 132.156Z" fill="white"/>
<path d="M765.694 125.028H737.448V99.9058H765.694V58.3529H795.297V99.9058H838.208V125.028H795.297V188.715C795.297 199.307 797.108 206.866 800.729 211.393C804.348 215.921 810.55 218.184 819.333 218.182C823.224 218.182 826.528 218.024 829.246 217.707C831.962 217.391 834.949 216.961 838.208 216.417V241.267C834.489 242.343 830.701 243.16 826.869 243.712C822.485 244.357 818.06 244.675 813.629 244.663C781.671 244.663 765.693 227.19 765.694 192.246V125.028Z" fill="white"/>
<path d="M992.474 241.539H963.414V221.713C958.254 229.138 951.691 234.864 943.724 238.891C935.757 242.918 926.704 244.933 916.565 244.935C904.072 244.935 893.005 241.743 883.363 235.36C873.722 228.978 866.14 220.197 860.618 209.017C855.095 197.836 852.334 185.049 852.334 170.655C852.334 156.17 855.141 143.36 860.754 132.224C866.366 121.09 874.129 112.354 884.042 106.016C893.955 99.6805 905.339 96.512 918.194 96.5103C927.881 96.5103 936.572 98.389 944.267 102.147C951.858 105.819 958.433 111.297 963.414 118.102V99.9059H992.474V241.539ZM962.871 149.471C959.701 141.414 954.699 135.053 947.866 130.391C941.029 125.729 933.131 123.398 924.17 123.398C911.494 123.398 901.4 127.653 893.888 136.162C886.372 144.672 882.615 156.17 882.617 170.655C882.617 185.231 886.238 196.774 893.48 205.283C900.722 213.793 910.544 218.048 922.948 218.047C932.09 218.047 940.237 215.693 947.39 210.985C954.541 206.28 959.701 199.943 962.871 191.974V149.471Z" fill="white"/>
<path d="M216 45C191.322 45 172.03 63.5872 154.567 87.1986C130.569 56.643 110.5 45 86.4828 45C37.5172 45 0 108.724 0 176.172C0 218.379 20.4191 245 54.6207 245C79.2368 245 96.9407 233.395 128.414 178.379C128.414 178.379 141.533 155.211 150.559 139.252C153.721 144.358 157.052 149.86 160.552 155.759L175.31 180.586C204.06 228.696 220.078 245 249.103 245C282.423 245 300.965 218.015 300.965 174.931C300.966 104.31 262.602 45 216 45ZM104.414 163.483C78.8966 203.483 70.069 212.448 55.8621 212.448C41.2414 212.448 32.5517 199.613 32.5517 176.724C32.5517 127.759 56.9655 77.6896 86.069 77.6896C101.829 77.6896 115 86.7917 135.173 115.672C116.018 145.054 104.414 163.483 104.414 163.483ZM200.719 158.447L183.073 129.018C178.298 121.251 173.709 114.102 169.306 107.572C185.21 83.0245 198.328 70.7932 213.931 70.7932C246.345 70.7932 272.276 118.517 272.276 177.138C272.276 199.483 264.957 212.448 249.793 212.448C235.259 212.448 228.316 202.849 200.719 158.447Z" fill="white"/>
</svg>
