<svg width="248" height="76" viewBox="0 0 248 76" fill="none" xmlns="http://www.w3.org/2000/svg">
<path d="M37.3152 0.754639C17.7142 0.754639 1.65673 15.7978 0.130859 34.9153L20.13 43.1455C21.8245 41.9919 23.8717 41.3161 26.074 41.3161C26.2714 41.3161 26.4679 41.3228 26.6628 41.3337L35.5565 28.5028C35.5565 28.4415 35.5557 28.3819 35.5557 28.3214C35.5557 20.5984 41.8675 14.3151 49.6276 14.3151C57.3868 14.3151 63.6986 20.5984 63.6986 28.3214C63.6986 36.0445 57.3868 42.3286 49.6276 42.3286C49.5205 42.3286 49.4142 42.3261 49.3079 42.3235L36.6235 51.332C36.6303 51.4957 36.6362 51.6628 36.6362 51.829C36.6362 57.627 31.8983 62.3419 26.074 62.3419C20.9616 62.3419 16.6868 58.71 15.7185 53.9002L1.41633 48.0149C5.84465 63.6038 20.2337 75.0326 37.3152 75.0326C57.9233 75.0326 74.6286 58.4044 74.6286 37.8949C74.6286 17.382 57.9224 0.754639 37.3152 0.754639Z" fill="white"/>
<path d="M23.5132 57.1073L18.9297 55.2225C19.742 56.9058 21.1472 58.3154 23.013 59.0895C27.0466 60.7619 31.6967 58.857 33.3778 54.8389C34.1918 52.8961 34.1968 50.7511 33.3896 48.8033C32.5841 46.8547 31.0641 45.3351 29.1097 44.5241C27.1706 43.7206 25.0931 43.75 23.2677 44.4359L28.0022 46.3845C30.9772 47.6187 32.3842 51.0189 31.1442 53.98C29.9068 56.9419 26.4882 58.3423 23.5132 57.1073Z" fill="white"/>
<path d="M59.0024 28.3215C59.0024 23.1759 54.7968 18.989 49.6262 18.989C44.4565 18.989 40.25 23.1759 40.25 28.3215C40.25 33.468 44.4565 37.6532 49.6262 37.6532C54.7968 37.6523 59.0024 33.4671 59.0024 28.3215ZM42.5983 28.3056C42.5983 24.4335 45.7521 21.2953 49.6422 21.2953C53.5324 21.2953 56.6862 24.4335 56.6862 28.3056C56.6862 32.1776 53.5324 35.3158 49.6422 35.3158C45.7521 35.3158 42.5983 32.1767 42.5983 28.3056Z" fill="white"/>
<path d="M114.478 26.1655L111.978 30.5396C110.052 29.2005 107.442 28.3945 105.164 28.3945C102.56 28.3945 100.949 29.4675 100.949 31.3892C100.949 33.724 103.811 34.2672 108.065 35.7868C112.637 37.3962 115.266 39.2877 115.266 43.4561C115.266 49.1592 110.76 52.3621 104.283 52.3621C101.127 52.3621 97.3195 51.5511 94.3926 49.7788L96.2162 44.9295C98.594 46.1796 101.438 46.921 103.974 46.921C107.392 46.921 109.016 45.6658 109.016 43.8104C109.016 41.6872 106.539 41.0491 102.54 39.731C97.9825 38.2165 94.8244 36.2292 94.8244 31.6159C94.8244 26.4131 99.0107 23.4252 105.034 23.4252C109.232 23.4252 112.606 24.7491 114.478 26.1655Z" fill="white"/>
<path d="M134.021 28.9301V51.8827H128.134V28.9301H119.59V23.9045H142.54V28.9301H134.021Z" fill="white"/>
<path d="M154.949 28.915V35.2192H166.215V40.2448H154.949V46.811H168.02V51.8827H149.064V23.9045H168.02V28.915H154.949Z" fill="white"/>
<path d="M181.159 46.4507L179.298 51.8835H173.127L183.666 23.9053H189.592L200.429 51.8826H194.05L192.148 46.4499L181.159 46.4507ZM186.596 30.5789L182.757 41.7811H190.514L186.596 30.5789Z" fill="white"/>
<path d="M230.641 34.7189L222.948 51.0675H219.627L212.059 34.8649V51.8827H206.422V23.9045H212.046L221.493 44.1009L230.605 23.9045H236.278V51.8827H230.642L230.641 34.7189Z" fill="white"/>
<path d="M247.658 27.4341C247.658 29.8385 245.848 31.3371 243.771 31.3371C241.685 31.3371 239.871 29.8385 239.871 27.4341C239.871 25.0304 241.685 23.5419 243.771 23.5419C245.849 23.5419 247.658 25.0304 247.658 27.4341ZM240.525 27.4341C240.525 29.4456 241.981 30.7092 243.771 30.7092C245.554 30.7092 247.004 29.4456 247.004 27.4341C247.004 25.4166 245.554 24.1724 243.771 24.1724C241.986 24.1724 240.525 25.4317 240.525 27.4341ZM243.825 25.4451C244.833 25.4451 245.172 25.9757 245.172 26.5492C245.172 27.0747 244.859 27.4273 244.477 27.607L245.381 29.292H244.641L243.879 27.7984H243.094V29.292H242.478V25.4451H243.825ZM243.1 27.2351H243.787C244.231 27.2351 244.493 26.9572 244.493 26.6079C244.493 26.2553 244.305 26.0286 243.785 26.0286H243.099V27.2351H243.1Z" fill="white"/>
</svg>
