<svg width="616" height="196" viewBox="0 0 616 196" fill="none" xmlns="http://www.w3.org/2000/svg">
<path fill-rule="evenodd" clip-rule="evenodd" d="M350.947 143.569H320.809V115.909H350.473V122.035H328.873V126.745H349.321V132.523H328.885V137.287H350.947V143.581V143.569Z" fill="white"/>
<path fill-rule="evenodd" clip-rule="evenodd" d="M524.347 143.569H494.683V116.347H523.885V122.347H502.633V126.979H522.757V132.661H502.633V137.353H524.347V143.551V143.569Z" fill="white"/>
<path fill-rule="evenodd" clip-rule="evenodd" d="M391.813 143.569H379.621L363.565 122.881H363.409V143.569H355.429V115.909H367.819L383.677 136.621H383.833V115.909H391.831V143.569H391.813Z" fill="white"/>
<path fill-rule="evenodd" clip-rule="evenodd" d="M488.448 143.569H476.256L460.2 122.881H460.044V143.569H452.028V115.909H464.418L480.276 136.621H480.432V115.909H488.448V143.569Z" fill="white"/>
<path fill-rule="evenodd" clip-rule="evenodd" d="M415.374 143.935C412.818 143.935 410.618 143.871 408.774 143.743C407.173 143.662 405.584 143.425 404.028 143.035C402.888 142.751 401.814 142.248 400.866 141.553C400.037 140.907 399.384 140.06 398.97 139.093C398.472 137.922 398.154 136.682 398.028 135.415C397.86 133.717 397.782 132.01 397.794 130.303V129.493C397.782 127.774 397.864 126.055 398.04 124.345C398.159 123.073 398.47 121.827 398.964 120.649C399.385 119.686 400.038 118.843 400.866 118.195C401.815 117.505 402.892 117.012 404.034 116.743C405.586 116.357 407.171 116.122 408.768 116.041C410.628 115.921 412.828 115.861 415.368 115.861H416.568C418.696 115.861 420.56 115.907 422.16 115.999C423.545 116.068 424.922 116.236 426.282 116.503C427.277 116.69 428.238 117.025 429.132 117.499C429.852 117.881 430.469 118.431 430.932 119.101C431.391 119.809 431.7 120.603 431.838 121.435C432.018 122.483 432.102 123.546 432.09 124.609V125.671H424.29V125.335C424.305 124.792 424.205 124.253 423.996 123.751C423.752 123.281 423.345 122.916 422.85 122.725C422.081 122.428 421.273 122.246 420.45 122.185C419.418 122.085 418.058 122.033 416.37 122.029H415.686C414.154 122.029 412.846 122.055 411.762 122.107C410.852 122.139 409.946 122.253 409.056 122.449C408.439 122.581 407.857 122.841 407.346 123.211C406.91 123.558 406.581 124.022 406.398 124.549C406.172 125.228 406.039 125.935 406.002 126.649C405.942 127.483 405.912 128.485 405.912 129.649V130.141C405.912 131.287 405.942 132.265 406.002 133.081C406.04 133.782 406.174 134.474 406.398 135.139C406.581 135.663 406.91 136.123 407.346 136.465C407.857 136.836 408.439 137.095 409.056 137.227C409.946 137.423 410.852 137.537 411.762 137.569C412.846 137.625 414.154 137.651 415.686 137.647H416.37C417.618 137.647 418.692 137.647 419.592 137.581C420.492 137.515 421.254 137.461 421.872 137.365C422.381 137.294 422.877 137.155 423.348 136.951C423.685 136.801 423.98 136.57 424.206 136.279C424.413 136.002 424.551 135.679 424.608 135.337C424.675 134.917 424.707 134.491 424.704 134.065V133.297H414.09V127.957H432.408V134.101C432.421 135.272 432.335 136.443 432.15 137.599C432.002 138.516 431.685 139.397 431.214 140.197C430.761 140.928 430.145 141.544 429.414 141.997C428.516 142.533 427.538 142.92 426.516 143.143C425.135 143.455 423.73 143.656 422.316 143.743C420.684 143.863 418.788 143.923 416.616 143.923L415.374 143.935Z" fill="white"/>
<path fill-rule="evenodd" clip-rule="evenodd" d="M446.148 143.635H438.042V116.179H446.148V143.635Z" fill="white"/>
<path fill-rule="evenodd" clip-rule="evenodd" d="M258.66 101.419C254.74 101.419 251.304 101.313 248.352 101.101C245.779 100.951 243.223 100.592 240.708 100.027C238.837 99.6233 237.041 98.9267 235.386 97.9632C234.03 97.1464 232.878 96.0298 232.02 94.6992C231.135 93.2718 230.534 91.6868 230.25 90.0312C229.88 87.9441 229.707 85.8267 229.734 83.7072V52.5072H243.954V79.0992C243.954 80.7432 244.012 82.1552 244.128 83.3352C244.21 84.3649 244.446 85.3763 244.83 86.3352C245.154 87.13 245.682 87.8253 246.36 88.3512C247.154 88.9218 248.054 89.3296 249.006 89.5512C250.333 89.8869 251.689 90.0879 253.056 90.1512C254.664 90.2412 256.572 90.2892 258.798 90.2892H259.998C262.218 90.2892 264.13 90.2372 265.734 90.1332C267.1 90.0646 268.458 89.8738 269.79 89.5632C270.745 89.3493 271.646 88.9408 272.436 88.3632C273.106 87.8301 273.63 87.1367 273.96 86.3472C274.349 85.3896 274.588 84.3777 274.668 83.3472C274.78 82.1472 274.836 80.7472 274.836 79.1472V52.5012H289.062V83.7012C289.083 85.8131 288.922 87.9228 288.582 90.0072C288.319 91.6665 287.734 93.2583 286.86 94.6932C286.016 96.0225 284.876 97.1394 283.53 97.9572C281.88 98.9218 280.088 99.6185 278.22 100.021C275.696 100.587 273.129 100.946 270.546 101.095C267.566 101.303 264.096 101.409 260.136 101.413L258.66 101.419Z" fill="white"/>
<path fill-rule="evenodd" clip-rule="evenodd" d="M362.184 100.825H340.92L312.924 64.6453H312.648V100.825H298.704V52.4353H320.304L347.958 88.6513H348.228V52.4353H362.172V100.801L362.184 100.825Z" fill="white"/>
<path fill-rule="evenodd" clip-rule="evenodd" d="M404.106 76.8673C406.56 76.8673 408.51 76.7953 409.968 76.6453C411.128 76.5776 412.258 76.256 413.28 75.7033C414.01 75.2625 414.54 74.5543 414.756 73.7293C415.014 72.6306 415.131 71.5035 415.104 70.3753V69.5413C415.13 68.427 415.013 67.3139 414.756 66.2293C414.651 65.8212 414.465 65.4385 414.208 65.1044C413.951 64.7703 413.629 64.4916 413.262 64.2853C412.227 63.7539 411.093 63.4453 409.932 63.3793C408.474 63.2293 406.536 63.1573 404.106 63.1573H386.382V76.8673H404.106ZM429.426 100.825H415.374V96.9013C415.384 95.6831 415.328 94.4653 415.206 93.2533C415.123 92.3543 414.877 91.478 414.48 90.6673C414.124 89.9755 413.592 89.3898 412.938 88.9693C412.129 88.4823 411.239 88.1468 410.31 87.9793C408.984 87.7171 407.64 87.5607 406.29 87.5113C404.69 87.4273 402.794 87.3853 400.602 87.3853H386.382V100.825H372.294V52.4353H409.812C413.068 52.3818 416.321 52.6268 419.532 53.1673C421.697 53.4984 423.753 54.3372 425.532 55.6153C427.002 56.771 428.067 58.3635 428.574 60.1633C429.183 62.4439 429.466 64.7993 429.414 67.1593V68.8573C429.434 70.53 429.285 72.2004 428.97 73.8433C428.717 75.1475 428.227 76.3942 427.524 77.5213C426.862 78.5484 425.983 79.4187 424.95 80.0713C423.753 80.7994 422.44 81.3169 421.068 81.6013V81.8773C422.491 82.0861 423.888 82.442 425.238 82.9393C426.259 83.313 427.149 83.9759 427.8 84.8473C428.477 85.839 428.912 86.9753 429.072 88.1653C429.326 89.8993 429.44 91.6509 429.414 93.4033V100.801L429.426 100.825Z" fill="white"/>
<path fill-rule="evenodd" clip-rule="evenodd" d="M491.22 100.825H438.66V52.4353H490.392V63.1333H452.742V71.3593H488.4V81.4633H452.742V89.7973H491.22V100.801V100.825Z" fill="white"/>
<path fill-rule="evenodd" clip-rule="evenodd" d="M538.74 82.0812L528.882 62.6712H528.534L518.748 82.0812H538.74ZM563.628 100.861H548.292L543.858 92.1792H513.696L509.334 100.861H494.112L520.086 52.5012H537.54L563.628 100.861Z" fill="white"/>
<path fill-rule="evenodd" clip-rule="evenodd" d="M615.426 100.861H568.842V52.5012H583.062V89.6352H615.426V100.885V100.861Z" fill="white"/>
<path fill-rule="evenodd" clip-rule="evenodd" d="M156.72 112.14C155.034 120.276 147.528 141.144 123.606 152.448L114.006 141.648L97.8058 157.944C88.5817 157.82 79.5113 155.565 71.3033 151.355C63.0952 147.144 55.9718 141.093 50.4897 133.674C52.2133 134.21 53.9932 134.544 55.7937 134.67C58.4457 134.718 61.3198 133.746 61.3198 129.27V85.3201C61.3594 84.1891 61.1332 83.0646 60.6594 82.037C60.1856 81.0093 59.4774 80.107 58.5916 79.4027C57.7059 78.6984 56.6673 78.2117 55.5592 77.9817C54.4512 77.7516 53.3047 77.7846 52.2118 78.0781C44.7118 79.7941 38.7118 98.5201 38.7118 98.5201C38.6284 89.8726 40.4294 81.3107 43.9896 73.4297C47.5499 65.5487 52.7839 58.5377 59.3278 52.8841C70.4998 43.4161 81.4138 40.1401 89.7058 38.8561C81.5158 43.5241 76.9077 51.1441 76.9077 57.5401C76.9077 67.7941 83.0998 66.5821 84.9358 65.0701V124.422C85.2461 125.168 85.6493 125.871 86.1358 126.516C86.9559 127.65 88.0362 128.571 89.2858 129.202C90.5355 129.832 91.9181 130.154 93.3178 130.14C99.5218 130.14 107.568 123.06 107.568 123.06V75.0001C107.568 70.1101 103.884 64.2001 100.194 62.1841C100.194 62.1841 107.022 60.9841 112.302 65.0101C113.292 63.7974 114.345 62.6378 115.458 61.5361C127.734 49.4761 139.32 46.0561 148.968 44.3401C148.968 44.3401 131.406 58.1401 131.406 76.6201C131.406 90.3781 131.76 123.924 131.76 123.924C138.294 130.2 147.972 121.14 156.72 112.14Z" fill="white"/>
<path fill-rule="evenodd" clip-rule="evenodd" d="M98.5802 0.228028C79.2289 0.229215 60.3125 5.96871 44.2231 16.7207C28.1337 27.4727 15.594 42.7543 8.18966 60.6331C0.785331 78.5118 -1.15106 98.1847 2.62536 117.164C6.40178 136.143 15.7214 153.576 29.4057 167.259C43.09 180.942 60.5243 190.259 79.504 194.033C98.4838 197.807 118.156 195.868 136.034 188.462C153.912 181.055 169.192 168.514 179.942 152.423C190.692 136.332 196.429 117.415 196.428 98.064C196.428 85.215 193.897 72.4918 188.98 60.621C184.062 48.7502 176.855 37.9644 167.768 28.8793C158.682 19.7942 147.895 12.5879 136.024 7.67191C124.153 2.75589 111.429 0.226452 98.5802 0.228028ZM98.5802 191.994C80.0023 191.995 61.8413 186.487 46.3938 176.167C30.9463 165.846 18.9062 151.177 11.7959 134.014C4.68564 116.85 2.82466 97.9639 6.44829 79.7429C10.0719 61.5218 19.0174 44.7846 32.1535 31.6476C45.2896 18.5107 62.0263 9.5641 80.2471 5.93931C98.4679 2.31451 117.354 4.17429 134.518 11.2835C151.682 18.3926 166.352 30.4319 176.674 45.8787C186.995 61.3255 192.504 79.4862 192.504 98.064C192.504 122.975 182.609 146.865 164.995 164.48C147.381 182.096 123.491 191.992 98.5802 191.994Z" fill="white"/>
</svg>
