<svg width="278" height="97" viewBox="0 0 278 97" fill="none" xmlns="http://www.w3.org/2000/svg">
<g clip-path="url(#clip0_299_165)">
<path d="M135.4 52.7999C135.4 57.3999 132.9 60.5999 127.5 60.5999C121.9 60.5999 119.5 57.5 119.5 53V25.2H108V52.5999C108 63.3999 114.5 69.8 127.5 69.8C140.4 69.8 146.9 63.2999 146.9 52.5999V25.2H135.4V52.7999Z" fill="white"/>
<path d="M172.9 34.8C168.3 34.8 165.1 36.7 162.6 40.3H162.4V35.7001H152.2V69H162.8V50.6C162.8 46.5 165.1 43.6 168.6 43.6C172 43.6 173.8 46 173.8 49.5V69H184.4V47.4001C184.5 40.0001 180.2 34.8 172.9 34.8Z" fill="white"/>
<path d="M200.5 22.5H189.9V31.1H200.5V22.5Z" fill="white"/>
<path d="M200.5 35.7H189.9V68.9H200.5V35.7Z" fill="white"/>
<path d="M219.2 25.2H208.9V35.7H204.5V44.2999H208.9V60.2C208.9 67.3 213.3 69.4 219.5 69.4C222.4 69.4 224.4 69.1 225.3 68.9V61.2C224.9 61.2 223.9 61.2999 223 61.2999C220.7 61.2999 219.3 60.5999 219.3 58.0999V44.2999H225.3V35.7H219.3V25.2H219.2Z" fill="white"/>
<path d="M247.8 49.9C246.8 53.1 245.8 57.5999 245.8 57.5999H245.7C245.7 57.5999 244.7 53.2 243.6 49.9L239.1 35.7H227.9L237.7 61.2999C239.1 64.7999 239.7 66.7999 239.7 68.1999C239.7 70.4999 238.5 71.6999 235.3 71.6999H231.7V79.9H238.6C245.3 79.9 248.5 77.2 251.1 69.4L262.6 35.7H252L247.8 49.9Z" fill="white"/>
<path d="M46.5 17.3L61.8 26.1C62.4 26.4 62.4 27.3 61.8 27.6L43.6 38.1C43 38.4 42.4 38.4 41.9 38.1L23.8 27.6C23.2 27.3 23.2 26.4 23.8 26.1L39 17.3V0L0 22.5V67.6L15 59V41.3C15 40.7 15.7 40.2 16.3 40.6L34.5 51.1C35.1 51.4 35.4 52 35.4 52.6V73.6C35.4 74.2 34.7 74.7 34.1 74.3L18.8 65.5L3.8 74.1L42.8 96.6L81.8 74.1L66.8 65.5L51.5 74.3C51 74.6 50.2 74.2 50.2 73.6V52.6C50.2 52 50.5 51.4 51.1 51.1L69.3 40.6C69.8 40.3 70.6 40.7 70.6 41.3V59L85.6 67.6V22.5L46.5 0V17.3Z" fill="white"/>
<path d="M277.3 38.3C277.1 37.8 276.8 37.3 276.4 37C276 36.7 275.6 36.3 275 36.1C274.4 35.9 273.9 35.8 273.4 35.8C272.9 35.8 272.3 35.9 271.8 36.1C271.3 36.3 270.8 36.6 270.4 37C270 37.4 269.7 37.8 269.5 38.3C269.3 38.8 269.2 39.4 269.2 40C269.2 40.6 269.3 41.1001 269.5 41.7001C269.7 42.3001 270 42.7 270.4 43C270.8 43.3 271.2 43.7001 271.8 43.9001C272.4 44.1001 272.9 44.2001 273.4 44.2001C273.9 44.2001 274.5 44.1001 275 43.9001C275.5 43.7001 276 43.4 276.4 43C276.8 42.6 277.1 42.2001 277.3 41.7001C277.5 41.2001 277.6 40.6 277.6 40C277.6 39.4 277.5 38.8 277.3 38.3ZM276.2 41.6C275.9 42.1 275.5 42.5 275 42.8C274.5 43.1 274 43.2001 273.4 43.2001C272.8 43.2001 272.3 43.1 271.8 42.8C271.3 42.5 270.9 42.1 270.6 41.6C270.3 41.1 270.2 40.6 270.2 40C270.2 39.4 270.3 38.9001 270.6 38.4001C270.9 37.9001 271.3 37.5001 271.8 37.2001C272.3 36.9001 272.8 36.8 273.4 36.8C274 36.8 274.5 36.9001 275 37.2001C275.5 37.5001 275.9 37.9001 276.2 38.4001C276.5 38.9001 276.6 39.4 276.6 40C276.6 40.6 276.5 41.1 276.2 41.6Z" fill="white"/>
<path d="M274.9 39.9C275 39.7 275.1 39.5 275.1 39.2C275.1 38.9 275 38.7 274.9 38.5C274.8 38.3 274.6 38.2 274.4 38.1C274.2 38 274 38 273.9 38H271.9V41.9H272.8V40.6H273.7L274.4 41.9H275.3L274.5 40.4C274.6 40.2 274.8 40.1 274.9 39.9ZM273.9 39.7C273.8 39.8 273.6 39.9 273.5 39.9H272.7V38.6H273.5C273.6 38.6 273.7 38.6 273.9 38.7C274 38.8 274.1 38.9 274.1 39.2C274.1 39.4 274.1 39.6 273.9 39.7Z" fill="white"/>
</g>
<defs>
<clipPath id="clip0_299_165">
<rect width="277.6" height="96.6" fill="white"/>
</clipPath>
</defs>
</svg>
